<svg width="20" height="20" viewBox="0 0 20 20" fill="none" xmlns="http://www.w3.org/2000/svg">
<path opacity="0.3" fill-rule="evenodd" clip-rule="evenodd" d="M0 4.3125C0 1.93077 1.93077 0 4.3125 0H15.6875C18.0692 0 20 1.93077 20 4.3125V15.6875C20 18.0692 18.0692 20 15.6875 20H4.3125C1.93077 20 0 18.0692 0 15.6875V4.3125ZM14.2857 10C14.2857 12.3669 12.3669 14.2857 10 14.2857C7.63307 14.2857 5.71429 12.3669 5.71429 10C5.71429 7.63307 7.63307 5.71429 10 5.71429C12.3669 5.71429 14.2857 7.63307 14.2857 10ZM15.7143 5.71429C16.5033 5.71429 17.1429 5.07469 17.1429 4.28571C17.1429 3.49674 16.5033 2.85714 15.7143 2.85714C14.9253 2.85714 14.2857 3.49674 14.2857 4.28571C14.2857 5.07469 14.9253 5.71429 15.7143 5.71429Z" fill="#2E3262"/>
</svg>
