<svg width="23" height="23" viewBox="0 0 23 23" fill="none" xmlns="http://www.w3.org/2000/svg">
<g opacity="0.3">
<path d="M21.5769 5.76758C20.2643 5.76758 19.0532 5.33273 18.0806 4.59916C16.9652 3.75822 16.1638 2.52467 15.8808 1.10289C15.8107 0.751601 15.773 0.389082 15.7694 0.0175781H12.0197V10.2634L12.0152 15.8754C12.0152 17.3758 11.0382 18.648 9.6838 19.0954C9.29074 19.2253 8.86622 19.2868 8.42419 19.2626C7.85997 19.2316 7.33124 19.0613 6.87169 18.7864C5.89374 18.2015 5.2307 17.1404 5.21273 15.9267C5.18443 14.0296 6.71806 12.4829 8.61376 12.4829C8.98796 12.4829 9.34734 12.544 9.6838 12.655V9.85457V8.84787C9.32892 8.79531 8.96775 8.76791 8.60253 8.76791C6.52759 8.76791 4.58697 9.63041 3.19978 11.1843C2.1513 12.3585 1.5224 13.8567 1.42536 15.4276C1.29824 17.4913 2.05337 19.453 3.51783 20.9004C3.733 21.1129 3.95896 21.3101 4.19525 21.492C5.45081 22.4583 6.98579 22.9821 8.60253 22.9821C8.96775 22.9821 9.32892 22.9551 9.6838 22.9026C11.1941 22.6789 12.5876 21.9875 13.6872 20.9004C15.0385 19.5649 15.7851 17.7918 15.7932 15.9046L15.7739 7.52402C16.4185 8.02131 17.1233 8.43279 17.8798 8.75219C19.0563 9.24857 20.3038 9.50014 21.5877 9.49969V6.77697V5.76668C21.5886 5.76758 21.5778 5.76758 21.5769 5.76758Z" fill="#2E3262"/>
</g>
</svg>
