<svg width="20" height="20" viewBox="0 0 20 20" fill="none" xmlns="http://www.w3.org/2000/svg">
<g opacity="0.3">
<path d="M10 0C4.50745 0 0 4.50745 0 10C0 11.8127 0.488739 13.5774 1.41556 15.1213L0 20L4.87869 18.5844C6.42258 19.5113 8.18726 20 10 20C15.4926 20 20 15.4926 20 10C20 4.50745 15.4926 0 10 0ZM16.2521 14.2253L15.7869 14.6906C15.1286 15.3488 13.6148 15.2966 12.6421 15.1088C9.40765 14.4841 5.63675 10.829 4.90952 7.66373C4.54941 6.09573 4.74823 4.73251 5.26825 4.21234L5.73349 3.7471C5.9903 3.49045 6.40747 3.49075 6.66397 3.7471L8.52524 5.60852C8.64944 5.73273 8.7175 5.89737 8.7175 6.07361C8.7175 6.24985 8.64944 6.41464 8.52524 6.53839L8.06015 7.00409C7.54745 7.51801 7.54745 8.35281 8.06015 8.86551L11.1337 11.8987C11.6479 12.4129 12.4802 12.4135 12.9951 11.8987L13.4604 11.4336C13.7006 11.192 14.1492 11.1913 14.3913 11.4336L16.2521 13.2944C16.5048 13.546 16.5144 13.9629 16.2521 14.2253Z" fill="#2E3262"/>
</g>
</svg>
