<svg width="23" height="23" viewBox="0 0 23 23" fill="none" xmlns="http://www.w3.org/2000/svg">
<g opacity="0.3">
<path d="M21.8257 6.11064C21.5773 5.18689 20.849 4.45871 19.9253 4.20997C18.238 3.74829 11.4885 3.74829 11.4885 3.74829C11.4885 3.74829 4.73933 3.74829 3.052 4.19247C2.14615 4.44094 1.40007 5.18702 1.15159 6.11064C0.70755 7.79784 0.70755 11.2969 0.70755 11.2969C0.70755 11.2969 0.70755 14.8136 1.15159 16.4831C1.40033 17.4067 2.12838 18.1349 3.05213 18.3837C4.7571 18.8455 11.4888 18.8455 11.4888 18.8455C11.4888 18.8455 18.238 18.8455 19.9253 18.4013C20.8491 18.1527 21.5773 17.4245 21.826 16.5009C22.2699 14.8136 22.2699 11.3146 22.2699 11.3146C22.2699 11.3146 22.2877 7.79784 21.8257 6.11064ZM9.33966 14.5294V8.06435L14.9522 11.2969L9.33966 14.5294Z" fill="#2E3262"/>
</g>
</svg>
